<svg id="Layer_1" data-name="Layer 1" xmlns="http://www.w3.org/2000/svg" viewBox="0 0 50.343 51.271">
  <defs>
    <style>
      .cls-1, .cls-2, .cls-3 {
        fill: #2c97a0;
      }

      .cls-1 {
        opacity: 0.59;
      }

      .cls-3 {
        opacity: 0.63;
      }
    </style>
  </defs>
  <title>c36ef08d-1566-4b0d-b770-ea77f47be93b</title>
  <path class="cls-1" d="M49.21,10.02a15.682,15.682,0,0,0-3.262-5.273,14.559,14.559,0,0,0-4.941-3.5,15.2,15.2,0,0,0-13.828.9A15.748,15.748,0,0,0,21.5,7.871a14.987,14.987,0,0,0-2.109,7.754v4.858L49.133,50.23l1,1h.013v-.062l.2-34.644A18.208,18.208,0,0,0,49.21,10.02Z"/>
  <path class="cls-2" d="M15.254,51.271A14.259,14.259,0,0,1,4.16,46.691,15.624,15.624,0,0,1,0,35.821,16.506,16.506,0,0,1,4.116,24.795q4.116-4.824,11.38-4.824H28.769V31.98H26.347a13.631,13.631,0,0,0-3.928-6.8A8.189,8.189,0,0,0,16.6,22.861a6.47,6.47,0,0,0-5.833,3.068Q8.8,29,8.8,35.51a29.7,29.7,0,0,0,.7,7.259,6.982,6.982,0,0,0,2.785,4.123,7.8,7.8,0,0,0,4.545,1.445,8.463,8.463,0,0,0,5.811-2.29,13.241,13.241,0,0,0,3.676-6.98h2.443V51.23"/>
  <polygon class="cls-3" points="50.146 51.243 50.146 51.23 50.133 51.23 50.146 51.243"/>
  <polygon class="cls-1" points="28.769 50.23 28.769 51.23 50.133 51.23 49.133 50.23 28.769 50.23"/>
  <polygon class="cls-2" points="50.146 51.168 50.146 51.23 50.146 51.23 50.146 51.168"/>
</svg>
