<svg id="Layer_1" data-name="Layer 1" xmlns="http://www.w3.org/2000/svg" viewBox="0 0 655.023 117.996">
  <defs>
    <style>
      .cls-1 {
        fill: #231f20;
      }
    </style>
  </defs>
  <title>09ef671b-5bc8-41a5-b3fc-db395053afac</title>
  <path class="cls-1" d="M46.392,50.536c.742-3.425,3.135-9.752,8.472-26.523a3.9,3.9,0,0,1,1.847-2.474c.958-.375,1.521,1.36,1.211,2.339-1.322,4.15-2.9,9.138-4.366,13.764,2.758-5.81,5.281-11.954,6.257-14.757C63.157,13.276,63.9,5.73,61.675,4.111c-.722-.518-3.866-1.6-14.335,6.355C26.309,26.444-3.419,76.809,5.23,94.9c3.237,6.773,11.921,8.467,25.813,5.041a122.323,122.323,0,0,0,28.6-10.709C62.393,76.166,81.531,50.2,86.866,45.642c2.687-2.3,5.51-4.439,7.971-3.327,2.314,1.056,2.649,4.259,2.672,7.253a24.141,24.141,0,0,1-.838,3.87c1.252-1.905,2.014-1.994,2.547-2.058l1.083-.127.863.982c.344.474,1.389,1.914-1.531,8.235A88.076,88.076,0,0,1,92.6,72.261c-2.85,7.687-5.281,16.082-3.648,19.927,2.412,5.691,8.195,7.466,17.665,5.428,7.018-1.512,14.281-4.363,24.382-18.391,2.132-11.787,18.06-45.743,18.175-45.958,1.823-3.428,5.737-8.794,8.871-7.144,2.569,1.354,1.821,5.581-2.421,13.7-4.879,9.336-17.084,35.24-21.138,40.953-.54,3.3-.46,5.9.529,7.246,1.954,2.658,5.512,4.524,9.76,5.122,4.17.594,12.652.438,22.522-7.177a79.417,79.417,0,0,0,7.813-6.824c1.749-7.96,15.055-35.614,16.8-38.132,4.132-5.973,6.179-7.613,8.1-6.519,1.605.923,1.961,3.058-1.514,10.47l-.554,1.234c-1.456,3.3-12.85,27.985-19.416,34.791-.654,3.512-.674,6.675.429,8.7a5.67,5.67,0,0,0,4.543,3.128c7.638,1.271,20.361-5.717,23.04-8.147a48.392,48.392,0,0,0,4-3.636c3.079-3.55,3.491-4.833,5.119-3.737,1.671,1.127.716,2.992-.865,6.084-3.89,7.606-4.583,9.572,1.342,14.071,9.363,7.113,24.146-1.9,27.012-3.779a47.459,47.459,0,0,0,5.3-4.1c1.251-6.517,6.371-13.339,7.726-15.055,2.532-3.208,5.059-3.2,6.453-2.209,1.5,1.063,2.136,3.537.16,6.669A71.093,71.093,0,0,1,251.9,91.448,6.156,6.156,0,0,0,252.488,95c1.5,2.727,6.156,5.195,13.535,4.428,1-.082,1.914-.144,2.02.879s-.585,1.292-1.609,1.4c-9.109.942-14.9-.709-17.209-4.912a8.482,8.482,0,0,1-.854-2.325c-1.056.834-2.127,1.614-3.2,2.314-3.234,2.121-19.945,12.265-31.3,3.632-5.946-4.514-6.7-8.095-5.119-12.739-3.608,3.137-16.76,10.321-25.873,8.813a9.347,9.347,0,0,1-7.24-5.088,12.876,12.876,0,0,1-1.291-6.431c-1.443,1.278-3.032,2.6-4.786,3.948-8.113,6.26-17.107,9.082-25.314,7.915-5.235-.736-9.7-3.143-12.239-6.6a8.623,8.623,0,0,1-1.449-4.3c-8.185,9.991-15.273,13.621-23.164,15.32-11.339,2.438-18.7-.118-21.879-7.613-1.229-2.9-.949-7.069.211-11.943-5.386,7.022-10.485,12.9-12.072,14.151-3.257,2.561-6.042,3.594-8.516,3.132-2.038-.374-3.776-1.74-5.168-4.059a4.408,4.408,0,0,1-.507-1.314,130.047,130.047,0,0,1-27.53,9.947,55.629,55.629,0,0,1-13.143,1.829c-8.427,0-14.1-2.967-16.924-8.878C-8.3,75.22,25.434,22.432,45.09,7.5c9.2-6.986,15.162-9.023,18.772-6.4,4.932,3.581,2.43,14.49-.534,23.011C61.941,28.1,53.91,47.788,48.853,52.753a5.142,5.142,0,0,1-.966.634,2.559,2.559,0,0,1-.964.186c-.33.016-.684-.348-.635-1.742M62.9,91.793a2.4,2.4,0,0,0,.271,1.214,4.262,4.262,0,0,0,2.65,2.314c1.352.26,3.2-.558,5.541-2.4,1.727-1.356,10.916-12.286,17.954-22.481.549-1.465,1.129-2.948,1.725-4.443C86.143,74,77.626,83.631,62.9,91.793ZM93.2,45.64a20.511,20.511,0,0,0-3.912,2.832c-6.306,5.388-20.628,26.87-25.058,38.141C88.019,72.11,93.817,53.805,93.787,49.6,93.761,46.285,93.219,45.665,93.2,45.64ZM260.219,75.7a5.4,5.4,0,0,0-1.14,1.12,47.836,47.836,0,0,0-4.039,6.071,52.907,52.907,0,0,0,4.581-5.9A4.754,4.754,0,0,0,260.219,75.7Zm-64.5-33.635q-.354.494-.753,1.069c-1.4,2.027-12.216,24.824-13.739,28.729,2.26-3.285,12.456-25.244,13.3-27.162l.591-1.314Q195.445,42.682,195.717,42.064ZM155.523,30.639a19.8,19.8,0,0,0-3.067,4.377,126.282,126.282,0,0,0-6.584,14.726c2.036-3.441,4.181-7.3,6.446-11.639A39.524,39.524,0,0,0,155.523,30.639Z"/>
  <path class="cls-1" d="M237.586,49.273a1.822,1.822,0,0,1-.367-.036A25.014,25.014,0,0,1,223.4,40.879a1.861,1.861,0,1,1,2.781-2.472c2.24,2.519,5.629,7.619,11.5,8.793,1.007.2,1.71.145,1.509,1.154C239.014,49.239,238.455,49.273,237.586,49.273Z"/>
  <path class="cls-1" d="M323.568,102.6c-8.657,0-14.449-2.819-17.321-8.46-10.207-20.045,24.378-68.6,44.368-80.729,7.948-4.821,13.137-5.993,16.326-3.688,3.732,2.7,2.877,8.872,1.713,13.952-.069.3-8.857,30.93-16.009,33.831a4.288,4.288,0,0,1-2.117-.722c-.729-.63-.2-2.466-.2-2.466,1.822-5.439,5.533-18.748,6.616-22.9a6.555,6.555,0,0,1,2.366-3.6c1.1-.613,1.606.961,1.57,2.213a32.579,32.579,0,0,1-.915,5.6,126.056,126.056,0,0,0,4.267-12.971c1.649-7.2.587-8.875.053-9.258-.375-.275-2.671-1.354-11.315,3.89-19.875,12.055-51.042,58.356-42.677,74.784,4.663,9.152,23.438,9.438,51.584-2.354,1.168-.479,1.862-.687,2.416.084.518.722-.212,1.88-1.367,2.365Q338.027,102.6,323.568,102.6Z"/>
  <path class="cls-1" d="M405.3,106.936a5.726,5.726,0,0,1-3.872-1.378C388.776,94.916,431.878,20.9,432.36,20.187a2.137,2.137,0,1,1,3.536,2.4c-8.213,12.1-39.027,73.549-31.714,79.7.827.7,5.714,6.11,33.437-20.692.854-.818,2.8-3.016,3.618-2.171s-.558,2.521-1.406,3.342C418.713,103.185,410.418,106.936,405.3,106.936Z"/>
  <path class="cls-1" d="M484.9,68.736"/>
  <path class="cls-1" d="M481.9,67.852c-19.094,4.659-49.528,6.453-74.762,6.453h-.182a2.139,2.139,0,1,0,.125,4.275c9.741,0,47.843-.38,73.255-6.01-5.033,9.43-7.81,19.114-6.432,23.239a4.073,4.073,0,0,0,3.269,2.927c2.774.407,8.221-1.443,22.9-22.22,1.841-2.605,3.232-4.482,4.284-5.833-.111.434-.236.91-.378,1.432-3.052,11.212-1.3,20.544,4.476,23.773,4.325,2.419,12.269,2.3,25.654-11.943A82.424,82.424,0,0,0,543.6,71.3a38.027,38.027,0,0,1,3.075-4.4,8.759,8.759,0,0,1,.618,1.113c.843,1.766.033,3.05-2.163,5.774-2.071,2.566-4.908,6.081-2.829,10.7a8.843,8.843,0,0,0,7.1,5.206c9.561,1.428,13.928-.627,17.791-3.7,3.144-2.5,15.768-16.06,19.918-22.116-1.716,11.283-1.9,22.984,2.052,31.2a17.859,17.859,0,0,0,11.348,9.9,2.1,2.1,0,0,0,.6.088c.925,0,1.658.009,1.775-.954.083-.685-.255-1.293-1.387-1.625-3.937-1.159-6.628-4-8.316-7.92-4.146-9.619-3.03-26.338-.016-39.824,5.492-8.563,10.273-16.834,11.482-20.544,2.042-6.254,1.62-10.425-1.156-11.444-1.449-.532-4.286-.434-7,6.2a263.982,263.982,0,0,0-7.637,26.1c-5.812,9-21.268,25.387-25.212,28.453a15.72,15.72,0,0,1-12.708,3.305c-1.908-.353-4.029-2.5-4.737-4.074-.954-2.121.175-3.682,2.257-6.263,2.129-2.641,4.781-5.927,2.693-10.3-.816-1.708-2.025-3.682-4.161-3.814-2.587-.2-4.275,2.4-6.989,6.632a78.924,78.924,0,0,1-9,12.024c-8.709,9.265-16.362,13.425-20.452,11.139-3.816-2.136-4.841-10.093-2.438-18.92,1.459-5.361,2.173-8.7-.215-9.822-2.336-1.1-4.346.783-11.306,10.632-14.534,20.567-18.63,20.473-18.544,20.6-1.422-1.929,1.641-13.035,7.947-23.481,6.167-1.72,11.21-3.839,14.365-6.446,4.221-3.493,6.029-6.392,5.526-8.868a3.9,3.9,0,0,0-2.864-2.954c-3.259-.958-8.35.944-11.826,4.459a58.6,58.6,0,0,0-6.945,8.664"/>
  <path class="cls-1" d="M578.108,50.759a2.138,2.138,0,0,1-.315-4.252c1.528-.23,4.634-.388,8.933-.61,16.442-.845,54.682-.884,64.181-11.819.772-.891,2.262-2.167,3.277-2.155,1.181.014.987,2.123.213,3.014-10.69,12.31-49.027,14.281-67.452,15.229-4.021.207-7.2.372-8.517.57A2.4,2.4,0,0,1,578.108,50.759Z"/>
  <path class="cls-1" d="M444.683,118a10.742,10.742,0,0,1-1.963-.434,5.1,5.1,0,0,1-2.39-1.781,13.67,13.67,0,0,1-1.052-3.17c-2.674-8.539,29.809-93.123,32.739-97.031a2.137,2.137,0,1,1,3.419,2.564c-4.328,5.77-33.466,86.411-32.107,93.112a8.605,8.605,0,0,0,.833,2.774c.464.807.769,1.1,1.3,1.018,1.06-.17,2.393-1.779,2.851-1.373a1.734,1.734,0,0,1-.249,2.538,7.422,7.422,0,0,1-1.337,1.315A3.243,3.243,0,0,1,444.683,118Zm-5.909-1.552h0Z"/>
</svg>
